<?xml version="1.0" encoding="utf-8"?>
<!-- Generator: Adobe Illustrator 26.3.0, SVG Export Plug-In . SVG Version: 6.00 Build 0)  -->
<svg version="1.2" baseProfile="tiny" id="Layer_1" xmlns="http://www.w3.org/2000/svg" xmlns:xlink="http://www.w3.org/1999/xlink"
	 x="0px" y="0px" viewBox="0 0 1366 768" overflow="visible" xml:space="preserve">
<text transform="matrix(1.4889 0 0 1 31.4062 155.0547)" font-family="'MyriadPro-Regular'" font-size="115.7795px">M</text>
<text transform="matrix(1.421 0 0 1 175.6406 153.7202)" font-family="'MyriadPro-Regular'" font-size="117.1171px">V</text>
<text transform="matrix(1.1046 0 0 1 253.1875 152.7734)" font-family="'MyriadPro-Regular'" font-size="88.9084px">.</text>
<text transform="matrix(1.4889 0 0 1 381.3167 152.1568)" font-family="'MyriadPro-Regular'" font-size="115.7795px">M</text>
<text transform="matrix(1.421 0 0 1 467.551 146.8224)" font-family="'MyriadPro-Regular'" font-size="117.1171px">V</text>
<text transform="matrix(1.1046 0 0 1 539.0979 154.8756)" font-family="'MyriadPro-Regular'" font-size="88.9084px">.</text>
<path d="M206.42,233.62c-0.65-0.53-1.44-0.8-2.36-0.8c-2.27,0-4.96,1.39-8.04,4.17c-7.86,7.02-14.82,13.67-20.88,19.96
	c-13.06,13.53-26.73,29.47-41.04,47.81l-0.16-3.26c0-0.93,0.04-1.89,0.11-2.9c1.97-3.07,4.12-6.3,6.51-9.7
	c2.64-3.77,7.66-10.06,15.07-18.88c4.15-4.9,6.45-7.63,6.9-8.2c2.3-2.75,3.45-4.77,3.45-6.05c0-0.87-0.45-1.58-1.35-2.15
	c-1.01-0.72-2.27-1.07-3.79-1.07c-2.64,0-5.67,1.28-9.09,3.84c-2.02,1.51-4.14,3.15-6.33,4.91c2.98-6.57,6.41-13.11,10.29-19.62
	l3.09-5.15c0.65-1.1,0.98-2.12,0.98-3.03c0-0.61-0.33-1.12-0.98-1.54c-0.7-0.53-1.68-0.8-2.93-0.8c-1.9,0-3.41,0.55-4.55,1.66
	c-0.65,0.65-2.06,2.73-4.23,6.23c-5.8,9.34-10.7,19.9-14.71,31.68c-0.27,0.8-0.53,1.58-0.79,2.35
	c-11.68,10.43-20.23,18.46-25.64,24.08c-6.51,6.75-10.66,11.01-12.46,12.78c1.4-5.77,4.55-12.79,9.43-21.09
	c5.67-9.2,11.87-17.49,18.6-24.87c2.36-2.6,3.54-4.47,3.54-5.6c0-1.02-0.65-1.92-1.94-2.71c-1.07-0.68-2.16-1.02-3.28-1.02
	c-1.8,0-4.07,0.89-6.82,2.66c-2.64,1.73-7.41,5.5-14.31,11.31c-16.5,13.91-30.78,28.76-42.84,44.55
	c-2.36,3.09-5.75,8.16-10.19,15.21c-2.08,3.2-3.11,5.16-3.11,5.88c0,0.49,0.23,0.9,0.67,1.24c0.56,0.49,1.26,0.74,2.1,0.74
	c3.31,0,6.23-2.04,8.75-6.11c5.05-7.99,9.34-14.38,12.88-19.17c7.46-9.95,15.94-19.65,25.42-29.11c5.22-5.12,10.66-9.63,16.33-13.51
	c-16.67,20.24-25,35.07-25,44.49c0,1.09,0.34,2.05,1.01,2.88c1.01,1.24,2.58,1.87,4.71,1.87c2.13,0,4.38-0.7,6.73-2.09
	c2.41-1.43,5.47-4.16,9.17-8.2c7.98-8.79,15.63-16.61,22.95-23.47c-1.54,5.58-2.53,10.33-2.97,14.23
	c-9.1,13.32-13.66,23.12-13.66,29.37c0,1.7,0.42,3.02,1.26,3.96c1.01,1.24,2.3,1.87,3.87,1.87c1.35,0,2.55-0.43,3.62-1.3
	c1.23-0.94,1.85-1.96,1.85-3.05c0-0.26-0.14-1.13-0.42-2.6c-0.11-0.49-0.17-0.96-0.17-1.41c0-2.04,0.98-5.22,2.95-9.55
	c0.73-1.59,1.58-3.26,2.5-4.99c1.38,1.79,3.46,2.68,6.22,2.68c1.62,0,2.98-0.48,4.06-1.43c1.03-0.84,2.57-2.55,4.63-5.15
	c22.64-28.55,42.93-50.72,60.86-66.51c2.76-2.4,4.14-4.1,4.14-5.09C207.07,234.41,206.85,234,206.42,233.62z M140.61,272.92
	c3.7-3.07,7.3-5.86,10.8-8.38c-5.05,5.96-9.61,11.54-13.7,16.74C138.54,278.64,139.5,275.85,140.61,272.92z"/>
<g>
	<path d="M406,318c-0.33-0.09-0.35,0.23-0.19,0.76C408.5,320.08,416.43,320.82,406,318z"/>
	<path d="M417,312c-0.11-0.49-1-2.55-1-3c0-2.04,0.04,2.33,2-2c3.37-7.27-1.24-16.67,6-27c2.64-3.77,3.94-11.85,11.34-20.67
		c4.15-4.9,6.45-7.63,6.9-8.2c2.3-2.75,3.45-4.77,3.45-6.05c0-0.19-0.03-0.37-0.07-0.55c-0.01-0.03-0.01-0.07-0.02-0.1
		c-0.17-0.58-0.59-1.08-1.25-1.5c-1.01-0.72-2.27-1.07-3.79-1.07c-2.64,0-5.67,1.28-9.09,3.84c-5.72,4.26-12.12,9.54-19.19,15.83
		c-12.18,10.85-21.04,19.17-26.6,24.93c-6.51,6.75-10.66,11-12.46,12.78c1.4-5.77,4.55-12.79,9.43-21.09
		c5.67-9.2,11.87-17.49,18.6-24.88c2.36-2.6,3.54-4.47,3.54-5.6c0-1.02-0.65-1.92-1.94-2.71c-1.07-0.68-2.16-1.02-3.28-1.02
		c-1.8,0-4.07,0.89-6.82,2.66c-2.64,1.73-7.41,5.5-14.31,11.31c-16.5,13.91-30.78,28.76-42.84,44.55
		c-2.36,3.09-5.75,8.16-10.19,15.21C323.34,320.88,312,337.28,312,338c0,0.49-0.45,0.66,0,1c0.56,0.49,1.92,1.47,3,1
		c3.04-1.32,16.31-16.5,18.83-20.57c5.05-7.99,9.34-14.38,12.88-19.16c7.46-9.95,15.94-19.65,25.42-29.11
		c5.22-5.13,10.66-9.63,16.33-13.51c-16.67,20.24-25,35.07-25,44.49c0,1.09,0.34,2.05,1.01,2.88c1.01,1.24,2.58,1.87,4.71,1.87
		c2.13,0,4.38-0.7,6.73-2.09c2.41-1.43,5.47-4.16,9.17-8.2c16.83-18.54,32.18-32.79,46.04-42.74C404.65,285.09,405,307.33,405,318
		c0,0.26,0.32,0.52,0.81,0.76c-0.16-0.53-0.13-0.85,0.19-0.76c10.43,2.82,2.5,2.08-0.19,0.76c0.6,2,3.95,7.24,5.19,7.24
		c1.35,0,10.93-2.13,12-3c1.23-0.94,24-22.91,24-24C447,298.74,417.28,313.47,417,312z"/>
</g>
<g>
	<path d="M444.44,246.31c0.31-0.4,0.62-0.79,0.93-1.19c0.16-0.21,0.24-0.35,0.28-0.46c-0.03-0.09-0.04-0.17-0.06-0.26
		c-0.56-0.11-3.16,1.6-1.59,0.6l-2,1C441.82,246.75,442.93,246.69,444.44,246.31z"/>
	<path d="M516.36,237.04c-0.8-0.53-1.76-0.8-2.9-0.8c-2.8,0-6.09,1.39-9.89,4.16c-9.66,6.99-18.21,13.62-25.67,19.88
		c-15.39,12.93-31.48,28.06-48.28,45.39c-0.86,0.89-2.36,0.29-2.36-0.95c0-0.04,0-0.08,0-0.12c0.02-7.59,3.74-17.61,9.09-30.31
		c0.6-1.42,1.42-3.17,2.41-5.12c0.78-3.78,1.87-7.54,3.4-11.08c0.23-0.54,0.46-1.08,0.69-1.62c0.14-0.54,0.29-1.07,0.44-1.6
		c0.63-2.25,1.24-4.47,1.76-6.75c0.04-0.17,0.09-0.34,0.14-0.52c-1.34,0.69-2.38,1.21-2.88,1.39c-6.25,7.72-12.7,14.94-16.93,25.01
		c-5.99,14.21-10.99,24.34-10.99,31.1c0,7.1,5.4,11,12.19,11c2,0,3.66-0.48,4.99-1.42c1.26-0.84,3.16-2.55,5.69-5.13
		c27.84-28.45,52.78-50.53,74.82-66.26c3.4-2.39,5.09-4.08,5.09-5.07C517.16,237.82,516.9,237.42,516.36,237.04z"/>
</g>
<g>
	<path d="M520.78,228.39c0-3.29,2.46-5.6,5.89-5.6c3.44,0,5.79,2.31,5.79,5.6c0,3.2-2.26,5.6-5.89,5.6
		C523.14,233.99,520.78,231.59,520.78,228.39z"/>
</g>
<g>
	<path d="M438.17,256.33c1.93,0,1.93-3,0-3C436.24,253.33,436.24,256.33,438.17,256.33L438.17,256.33z"/>
</g>
<g>
	<path d="M441.06,244.85c0.47,0.14,1.52,0.32,1.88,0.69c0.32,0.33,0.14,1.1,0.05,1.6c-0.24,1.39-0.77,2.73-1.18,4.07
		c-0.89,2.9-1.6,5.86-2.49,8.76c-1.55,5.11-3.75,10.13-7.99,13.57c-1.5,1.22,0.63,3.33,2.12,2.12c5.14-4.17,7.55-10.55,9.3-16.73
		c0.48-1.69,0.93-3.39,1.41-5.08c0.5-1.76,1.16-3.49,1.59-5.27c0.32-1.33,0.67-3.11,0.01-4.39c-0.69-1.34-2.57-1.82-3.9-2.23
		C440.01,241.4,439.22,244.29,441.06,244.85L441.06,244.85z"/>
</g>
<g>
	<path d="M405.22,310.49c-0.16,2.12-0.38,4.24-0.47,6.36c-0.08,1.86,0.11,3.79,1.14,5.39c0.91,1.42,2.19,2.89,3.81,3.45
		c1.87,0.65,4.02,0.79,5.96,0.45c3.7-0.66,7.24-1.96,10.03-4.54c2.64-2.43,4.51-5.55,6.99-8.13c1.34-1.39-0.78-3.52-2.12-2.12
		c-2.05,2.13-3.68,4.6-5.66,6.78c-2.19,2.41-4.68,3.81-7.83,4.62c-1.74,0.45-3.3,0.72-5.09,0.4c-0.8-0.14-1.52-0.26-2.13-0.82
		c-0.58-0.53-1.2-1.26-1.57-1.96c-0.69-1.32-0.57-2.9-0.47-4.33c0.13-1.85,0.28-3.7,0.42-5.55
		C408.37,308.56,405.37,308.57,405.22,310.49L405.22,310.49z"/>
</g>
<g>
	<path d="M420.65,324.57c3.25-0.55,5.96-2.5,8.36-4.66c2.72-2.44,5.3-5.07,7.87-7.67c5.28-5.36,10.36-10.92,15.24-16.65
		c1.24-1.46-0.87-3.59-2.12-2.12c-4.67,5.49-9.53,10.83-14.58,15.98c-2.49,2.55-5.02,5.07-7.62,7.51c-2.3,2.16-4.76,4.18-7.95,4.72
		C417.95,322,418.76,324.89,420.65,324.57L420.65,324.57z"/>
</g>
<g>
	<path d="M429.31,286.04c-0.48,2.69-0.9,5.49-0.88,8.23c0.02,2.5,1,4.78,3.24,6.03c1.92,1.07,4.25,1.24,6.35,0.67
		c2.47-0.67,4.55-2.19,6.56-3.71c0.64-0.49,0.98-1.29,0.54-2.05c-0.37-0.64-1.4-1.03-2.05-0.54c-2.69,2.04-6.38,4.84-9.72,3.12
		c-1.59-0.82-1.96-2.22-1.91-4.02c0.06-2.32,0.36-4.65,0.77-6.94c0.14-0.8-0.22-1.62-1.05-1.85
		C430.43,284.79,429.46,285.23,429.31,286.04L429.31,286.04z"/>
</g>
<g>
	<path d="M428.75,297.87c-1.05,1.38-1.81,2.89-2.35,4.53c0.96,0,1.93,0,2.89,0c-0.19-0.89-0.37-1.79-0.56-2.68
		c-0.34-1.63-3.11-1.3-2.95,0.4c0.19,1.99,0.58,3.91,1.24,5.8c0.47,1.33,2.51,1.52,2.89,0c0.7-2.8,0.6-5.71-0.4-8.43
		c-0.67-1.82-3.22-1.11-2.89,0.8c0.53,3.06,1.63,5.97,3.22,8.63c0.68,1.14,2.35,0.86,2.74-0.36c0.74-2.29,1.1-4.67,1.08-7.07
		c-1,0-2,0-3,0c0.04,0.94,0.07,1.89,0.11,2.83c0.06,1.5,1.99,2.03,2.8,0.76c0.83-1.31,0.48-2.71-0.19-4
		c-0.73-1.39-1.43-2.6-1.74-4.17c-0.6-3.03,0.03-6.21,0.82-9.14c1.88-6.97,4.44-13.8,6.69-20.65c0.6-1.84-2.29-2.63-2.89-0.8
		c-2.21,6.73-4.68,13.42-6.58,20.24c-0.81,2.89-1.43,5.96-1.22,8.98c0.1,1.45,0.37,2.89,0.9,4.25c0.27,0.69,0.59,1.34,0.96,1.98
		c0.25,0.43,0.98,1.31,0.67,1.79c0.93,0.25,1.86,0.5,2.8,0.76c-0.04-0.94-0.07-1.89-0.11-2.83c-0.07-1.92-3.02-1.94-3,0
		c0.02,2.16-0.31,4.22-0.97,6.28c0.91-0.12,1.83-0.24,2.74-0.36c-1.48-2.46-2.44-5.09-2.92-7.91c-0.96,0.27-1.93,0.53-2.89,0.8
		c0.82,2.24,0.98,4.52,0.4,6.83c0.96,0,1.93,0,2.89,0c-0.57-1.62-0.97-3.28-1.13-5c-0.98,0.13-1.96,0.27-2.95,0.4
		c0.19,0.89,0.37,1.79,0.56,2.68c0.32,1.54,2.46,1.31,2.89,0c0.46-1.4,1.15-2.64,2.04-3.81
		C432.51,297.84,429.9,296.35,428.75,297.87L428.75,297.87z"/>
</g>
<g>
	<path d="M432.13,299.47c-0.31-0.82-0.61-1.63-0.92-2.45c-0.05-0.2-0.14-0.37-0.27-0.51c-0.11-0.16-0.25-0.29-0.42-0.39
		c-0.32-0.19-0.8-0.27-1.16-0.15c-0.36,0.12-0.71,0.34-0.9,0.69c-0.18,0.34-0.29,0.78-0.15,1.16c0.31,0.82,0.61,1.63,0.92,2.45
		c0.05,0.2,0.14,0.37,0.27,0.51c0.11,0.16,0.25,0.29,0.42,0.39c0.32,0.19,0.8,0.27,1.16,0.15c0.36-0.12,0.71-0.34,0.9-0.69
		C432.16,300.28,432.27,299.84,432.13,299.47L432.13,299.47z"/>
</g>
<g>
	<path d="M450.54,296.78c3.39-3.64,6.78-7.27,10.17-10.91c0.55-0.59,0.59-1.53,0-2.12c-0.56-0.56-1.57-0.59-2.12,0
		c-3.39,3.64-6.78,7.27-10.17,10.91c-0.55,0.59-0.59,1.53,0,2.12C448.98,297.34,449.98,297.38,450.54,296.78L450.54,296.78z"/>
</g>
<g>
	<path d="M432.22,301.18c5.28-0.3,10.26-2.6,13.82-6.52c-0.84-0.49-1.67-0.97-2.51-1.46c-0.36,2.64-3.05,3.43-5.29,3.98
		c0.63,0.48,1.27,0.96,1.9,1.45c0.07-0.86,0.92-1.48,1.54-1.99c0.86-0.72,1.76-1.39,2.65-2.09c1.76-1.39,3.52-2.77,5.29-4.16
		c3.59-2.83,7.18-5.65,10.77-8.48c1.52-1.19-0.62-3.3-2.12-2.12c-3.98,3.13-7.96,6.27-11.94,9.4c-1.96,1.54-3.92,3.08-5.87,4.62
		c-1.65,1.3-3.13,2.59-3.3,4.81c-0.08,1.01,1.02,1.66,1.9,1.45c3.2-0.79,6.87-2.39,7.38-6.08c0.18-1.33-1.38-2.7-2.51-1.46
		c-3.02,3.33-7.19,5.39-11.7,5.65C430.3,298.29,430.28,301.29,432.22,301.18L432.22,301.18z"/>
</g>
<g>
	<path d="M442.21,294.06c-5.55,4.2-13.04,4.28-18.91,0.65c-1.65-1.02-3.15,1.57-1.51,2.59c6.68,4.14,15.59,4.16,21.93-0.65
		c0.65-0.49,0.97-1.29,0.54-2.05C443.9,293.96,442.86,293.57,442.21,294.06L442.21,294.06z"/>
</g>
<path fill="#010101" stroke="#010101" stroke-width="0.75" stroke-miterlimit="10" d="M101.59,524.36
	c24.36-26.24,38.65-61.19,70.06-80.28c1.56-0.95,3.49-1.32,5.29-0.85c5.27,1.38,2.6,7.67,1.41,11.85
	c-1.49,5.23-1.65,10.79-0.47,16.09c0.19,0.84,0.76,1.59,1.58,1.98c1.56,0.74,2.65-0.23,3.56-1.12c7.82-7.68,15.1-15.84,21.78-24.42
	c2.45-3.15,7.23-8.84,12.13-12.64c4.73-3.67,11.89-0.65,12.19,5.09c0.34,6.39-1.01,13.95-1.48,18.74
	c-0.64,6.61-3.47,13.39-0.86,19.65c0.16,0.38,0.36,0.74,0.63,1.05c1.68,1.93,4.21,0.85,6.1-0.27
	c19.29-11.43,34.41-27.92,49.73-43.75c7.43-7.68,15.61-15.64,26.78-17.39c1.95-0.3,3.98,0.05,5.59,1.12
	c3.35,2.24,2.56,5.61,1.32,8.37c-6.04,13.41-21.12,20.7-33.86,29.04c-23.29,15.24-41.11,36.61-57.83,58.11
	c-4.28,5.5-13.12,15.2-20.96,22.72c-3.56,3.41-9.74,0.65-9.08-4.07c2.18-15.45,8.98-33.84,11.33-46.76
	c0.49-2.67,1.41-5.82,1.94-8.92c0.68-4.01-4.82-6.22-7.45-2.99c-9.81,12.07-23.94,36.53-28.81,41.74
	c-9.22,9.86-18.92,27.12-25.43,23.8c-3.02-4.98,11.19-31.61,13.01-37.08c2.01-6.04,5.32-14.39,7.1-20.48
	c0.33-1.13,3.55-11.07-1.18-11.07c-1.2,0-2.23,0.77-2.96,1.11c-17.76,8.28-30.1,33.38-41.05,48.87
	c-4.49,6.35-29.94,46.02-39.16,40.9C68.93,554.97,97,529.3,101.59,524.36z"/>
<g>
	<path d="M324.45,407.48c0-5.59,4.11-9.52,9.86-9.52c5.75,0,9.69,3.93,9.69,9.52c0,5.44-3.78,9.52-9.86,9.52
		C328.39,417,324.45,412.92,324.45,407.48z"/>
</g>
</svg>
